<svg width="280" height="70" viewBox="0 0 556 188" fill="none" xmlns="http://www.w3.org/2000/svg">
<rect width="250" height="108" fill="white"/>
<path d="M83.91 124L62.66 75.125H76.94L94.96 118.05H86.715L105.075 75.125H118.42L97.17 124H83.91Z" fill="url(#paint0_linear_678_355)"/>
<path d="M161.752 109.125C161.752 112.185 160.874 114.905 159.117 117.285C157.417 119.665 154.924 121.535 151.637 122.895C148.407 124.255 144.412 124.935 139.652 124.935C135.742 124.935 131.889 124.453 128.092 123.49C124.352 122.527 121.32 121.252 118.997 119.665L123.672 109.72C125.882 111.193 128.46 112.355 131.407 113.205C134.354 114.055 137.357 114.48 140.417 114.48C143.42 114.48 145.517 114.055 146.707 113.205C147.897 112.355 148.492 111.363 148.492 110.23C148.492 109.097 147.954 108.19 146.877 107.51C145.857 106.83 144.497 106.292 142.797 105.895C141.154 105.442 139.312 105.017 137.272 104.62C135.289 104.223 133.277 103.713 131.237 103.09C129.254 102.467 127.412 101.645 125.712 100.625C124.069 99.5483 122.709 98.16 121.632 96.46C120.612 94.7033 120.102 92.5217 120.102 89.915C120.102 86.855 120.98 84.1633 122.737 81.84C124.55 79.46 127.1 77.59 130.387 76.23C133.674 74.87 137.584 74.19 142.117 74.19C145.177 74.19 148.294 74.53 151.467 75.21C154.64 75.89 157.417 76.9667 159.797 78.44L155.462 88.385C153.252 87.025 150.957 86.0617 148.577 85.495C146.254 84.9283 143.93 84.645 141.607 84.645C138.774 84.645 136.705 85.07 135.402 85.92C134.099 86.77 133.447 87.8467 133.447 89.15C133.447 90.2833 133.957 91.19 134.977 91.87C135.997 92.55 137.329 93.1167 138.972 93.57C140.672 93.9667 142.542 94.3633 144.582 94.76C146.622 95.1567 148.634 95.6667 150.617 96.29C152.6 96.8567 154.442 97.65 156.142 98.67C157.842 99.69 159.202 101.05 160.222 102.75C161.242 104.393 161.752 106.518 161.752 109.125ZM193.948 124.935C188.735 124.935 184.06 123.858 179.923 121.705C175.843 119.495 172.613 116.492 170.233 112.695C167.853 108.842 166.663 104.478 166.663 99.605C166.663 94.675 167.853 90.3117 170.233 86.515C172.613 82.6617 175.843 79.6583 179.923 77.505C184.06 75.295 188.735 74.19 193.948 74.19C198.538 74.19 202.562 74.8983 206.018 76.315C209.532 77.675 212.535 79.9417 215.028 83.115L206.358 91.02C204.715 89.0367 202.902 87.5633 200.918 86.6C198.935 85.6367 196.782 85.155 194.458 85.155C191.682 85.155 189.217 85.7783 187.063 87.025C184.91 88.215 183.21 89.8867 181.963 92.04C180.773 94.1933 180.178 96.715 180.178 99.605C180.178 102.438 180.773 104.932 181.963 107.085C183.21 109.238 184.91 110.938 187.063 112.185C189.217 113.375 191.682 113.97 194.458 113.97C196.782 113.97 198.935 113.488 200.918 112.525C202.902 111.562 204.715 110.088 206.358 108.105L215.028 116.01C212.535 119.127 209.532 121.393 206.018 122.81C202.562 124.227 198.538 124.935 193.948 124.935ZM223.441 124V75.125H236.871V93.825H256.761V75.125H270.191V124H256.761V104.62H236.871V124H223.441ZM307.175 124.935C301.905 124.935 297.202 123.858 293.065 121.705C288.928 119.495 285.67 116.463 283.29 112.61C280.91 108.757 279.72 104.393 279.72 99.52C279.72 94.6467 280.91 90.3117 283.29 86.515C285.67 82.7183 288.928 79.715 293.065 77.505C297.202 75.295 301.905 74.19 307.175 74.19C312.445 74.19 317.148 75.295 321.285 77.505C325.422 79.715 328.68 82.7183 331.06 86.515C333.44 90.3117 334.63 94.6467 334.63 99.52C334.63 104.393 333.44 108.757 331.06 112.61C328.68 116.463 325.422 119.495 321.285 121.705C317.148 123.858 312.445 124.935 307.175 124.935ZM307.175 113.97C309.895 113.97 312.275 113.375 314.315 112.185C316.412 110.938 318.055 109.21 319.245 107C320.435 104.79 321.03 102.325 321.03 99.605C321.03 96.7717 320.435 94.2783 319.245 92.125C318.055 89.9717 316.412 88.2717 314.315 87.025C312.275 85.7783 309.895 85.155 307.175 85.155C304.512 85.155 302.132 85.7783 300.035 87.025C297.938 88.2717 296.267 89.9717 295.02 92.125C293.83 94.2783 293.235 96.7433 293.235 99.52C293.235 102.297 293.83 104.79 295.02 107C296.267 109.21 297.938 110.938 300.035 112.185C302.132 113.375 304.512 113.97 307.175 113.97ZM344.135 124V75.125H357.565V113.545H381.45V124H344.135ZM381.732 124L403.662 75.125H416.922L438.937 124H425.677L408.082 81.585H412.587L394.737 124H381.732ZM393.717 114.31L397.202 104.62H421.342L424.827 114.31H393.717ZM444.74 124V75.125H467.01C471.544 75.125 475.425 75.8617 478.655 77.335C481.942 78.7517 484.492 80.7917 486.305 83.455C488.119 86.1183 489.025 89.3483 489.025 93.145C489.025 96.8283 488.119 100.002 486.305 102.665C484.492 105.328 481.942 107.368 478.655 108.785C475.425 110.202 471.544 110.91 467.01 110.91H452.135L458.17 105.215V124H444.74ZM475.51 124L463.185 106.235H477.465L489.96 124H475.51ZM458.17 106.745L453.24 100.71H466.075C469.192 100.71 471.544 100.058 473.13 98.755C474.717 97.395 475.51 95.525 475.51 93.145C475.51 90.7083 474.717 88.8383 473.13 87.535C471.544 86.2317 469.192 85.58 466.075 85.58H453.24L458.17 79.545V106.745Z" fill="#FF4A11"/>
<defs>
<linearGradient id="paint0_linear_678_355" x1="63" y1="94" x2="493" y2="94" gradientUnits="userSpaceOnUse">
<stop stop-color="#18269C"/>
<stop offset="1" stop-color="#263AE2"/>
</linearGradient>
</defs>
</svg>
